<?xml version="1.0" encoding="utf-8"?>
<!-- Generator: Adobe Illustrator 25.2.0, SVG Export Plug-In . SVG Version: 6.00 Build 0)  -->
<svg version="1.1" id="Icons" xmlns="http://www.w3.org/2000/svg" xmlns:xlink="http://www.w3.org/1999/xlink" x="0px" y="0px"
	 viewBox="0 0 512 512" style="enable-background:new 0 0 512 512;" xml:space="preserve">
<style type="text/css">
	.st0{fill:#0A9CB6;stroke:#0A9CB6;stroke-width:10;stroke-miterlimit:10;}
</style>
<path class="st0" d="M417.7,64.4H94.3c-3.8,0-6.9-3.1-6.9-6.9s3.1-6.9,6.9-6.9h323.5c3.8,0,6.9,3.1,6.9,6.9S421.6,64.4,417.7,64.4z"
	/>
<path class="st0" d="M305.7,461.4h-20.5c-3.8,0-6.9-3.1-6.9-6.9s3.1-6.9,6.9-6.9h20.5c3.8,0,6.9,3.1,6.9,6.9
	C312.7,458.3,309.6,461.4,305.7,461.4z"/>
<path class="st0" d="M168.3,461.4h-74c-3.8,0-6.9-3.1-6.9-6.9s3.1-6.9,6.9-6.9h74c3.8,0,6.9,3.1,6.9,6.9S172.1,461.4,168.3,461.4z"
	/>
<path class="st0" d="M236.8,461.4h-20.1c-3.8,0-6.9-3.1-6.9-6.9s3.1-6.9,6.9-6.9h20.1c3.8,0,6.9,3.1,6.9,6.9
	S240.6,461.4,236.8,461.4z"/>
<path class="st0" d="M417.8,461.4h-63.6c-3.8,0-6.9-3.1-6.9-6.9s3.1-6.9,6.9-6.9h63.6c3.8,0,6.9,3.1,6.9,6.9
	C424.7,458.3,421.6,461.4,417.8,461.4z"/>
<path class="st0" d="M57.5,424.6c-3.8,0-6.9-3.1-6.9-6.9V94.3c0-3.8,3.1-6.9,6.9-6.9s6.9,3.1,6.9,6.9v323.5
	C64.4,421.6,61.3,424.6,57.5,424.6z"/>
<path class="st0" d="M454.5,424.6c-3.8,0-6.9-3.1-6.9-6.9V94.3c0-3.8,3.1-6.9,6.9-6.9s6.9,3.1,6.9,6.9v323.5
	C461.4,421.6,458.3,424.6,454.5,424.6z"/>
<path class="st0" d="M491.2,101.2h-73.5c-3.8,0-6.9-3.1-6.9-6.9V20.8c0-3.8,3.1-6.9,6.9-6.9h73.5c3.8,0,6.9,3.1,6.9,6.9v73.5
	C498.2,98.1,495.1,101.2,491.2,101.2z M424.6,87.4h59.7V27.7h-59.7V87.4z"/>
<path class="st0" d="M94.3,101.2H20.8c-3.8,0-6.9-3.1-6.9-6.9V20.8c0-3.8,3.1-6.9,6.9-6.9h73.5c3.8,0,6.9,3.1,6.9,6.9v73.5
	C101.2,98.1,98.1,101.2,94.3,101.2z M27.7,87.4h59.7V27.7H27.7V87.4z"/>
<path class="st0" d="M491.2,498.2h-73.5c-3.8,0-6.9-3.1-6.9-6.9v-73.5c0-3.8,3.1-6.9,6.9-6.9h73.5c3.8,0,6.9,3.1,6.9,6.9v73.5
	C498.2,495.1,495.1,498.2,491.2,498.2z M424.6,484.3h59.7v-59.7h-59.7V484.3z"/>
<path class="st0" d="M94.3,498.2H20.8c-3.8,0-6.9-3.1-6.9-6.9v-73.5c0-3.8,3.1-6.9,6.9-6.9h73.5c3.8,0,6.9,3.1,6.9,6.9v73.5
	C101.2,495.1,98.1,498.2,94.3,498.2z M27.7,484.3h59.7v-59.7H27.7V484.3z"/>
<path class="st0" d="M170.9,362.3c-3.8,0-6.9-3.1-6.9-6.9c0-1.7,0.6-3.4,1.8-4.7l141.8-156c2.5-2.7,6.6-3,9.4-0.7l141.8,113.4
	c3,2.4,3.5,6.7,1.1,9.7s-6.7,3.5-9.7,1.1l0,0L313.5,208.9L176.1,360C174.7,361.5,172.9,362.3,170.9,362.3L170.9,362.3z"/>
<path class="st0" d="M57.5,301.9c-3.8,0-6.9-3.1-6.9-6.9c0-1.9,0.8-3.7,2.1-5l85.1-81.4c2.7-2.5,6.8-2.6,9.5,0l84.7,79.7
	c2.8,2.6,3,7,0.4,9.8s-7,3-9.8,0.4l-0.1-0.1l-79.9-75.3L62.3,300C61,301.2,59.3,301.9,57.5,301.9L57.5,301.9z"/>
<path class="st0" d="M205.9,209.2c-19.4,0-35.2-15.8-35.2-35.2s15.8-35.2,35.2-35.2s35.2,15.8,35.2,35.2l0,0
	C241.1,193.4,225.4,209.2,205.9,209.2z M205.9,152.7c-11.8,0-21.4,9.6-21.4,21.4c0,11.8,9.6,21.4,21.4,21.4
	c11.8,0,21.4-9.6,21.4-21.4l0,0C227.3,162.2,217.7,152.7,205.9,152.7z"/>
</svg>
