<?xml version="1.0" encoding="utf-8"?>
<!-- Generator: Adobe Illustrator 25.2.0, SVG Export Plug-In . SVG Version: 6.00 Build 0)  -->
<svg version="1.1" id="Capa_1" xmlns="http://www.w3.org/2000/svg" xmlns:xlink="http://www.w3.org/1999/xlink" x="0px" y="0px"
	 viewBox="0 0 512 512" style="enable-background:new 0 0 512 512;" xml:space="preserve">
<style type="text/css">
	.st0{fill:#FF8B0E;stroke:#FF8B0E;stroke-width:2;stroke-miterlimit:10;}
</style>
<g>
	<g>
		<path class="st0" d="M212.4,171.9c-3.9-3.9-10.2-3.9-14.1,0c-3.9,3.9-3.9,10.2,0,14.1c3.9,3.9,10.2,3.9,14.1,0
			S216.3,175.8,212.4,171.9z"/>
	</g>
</g>
<g>
	<g>
		<path class="st0" d="M452.9,299.4L289.1,135.6V90c0-49.6-40.4-90-90-90s-90,40.4-90,90v114.7l-79.7,79.7l0,0l0,0l-14.8,14.8
			c-19.5,19.5-19.5,51.2,0,70.7l127.2,127.2c9.4,9.4,22,14.6,35.3,14.6c13.4,0,25.9-5.2,35.3-14.6l14.8-14.8l0,0l0,0l166-166h52.4
			c4,0,7.7-2.4,9.2-6.2C456.6,306.5,455.8,302.2,452.9,299.4z M272.2,225.6c1.9-1.9,4.5-2.9,7.1-2.9s5.1,1,7.1,2.9
			c1.9,1.9,2.9,4.4,2.9,7.1c0,2.7-1,5.2-2.9,7.1l0,0c-1.9,1.9-4.4,2.9-7.1,2.9s-5.2-1-7.1-2.9s-2.9-4.4-2.9-7.1
			C269.2,230,270.3,227.5,272.2,225.6z M199.2,20.1c38.6,0,70,31.4,70,70v25.6l-28.3-28.3c-1.9-1.9-4.4-2.9-7.1-2.9
			s-5.2,1.1-7.1,2.9l-97.5,97.5V90l0,0C129.2,51.5,160.6,20.1,199.2,20.1z M198.4,483.1c-5.7,5.7-13.2,8.8-21.2,8.8
			s-15.5-3.1-21.2-8.8L28.8,355.9c-11.7-11.7-11.7-30.7,0-42.4l7.8-7.8l169.6,169.7L198.4,483.1z M389.3,296.4
			c-2.7,0-5.2,1.1-7.1,2.9L220.3,461.2L50.7,291.6l75.6-75.6l0,0l107.5-107.5l35.4,35.4v60.5c-4.1,1.4-7.9,3.8-11.1,7
			c-5.7,5.7-8.8,13.2-8.8,21.2s3.1,15.5,8.8,21.2c5.7,5.7,13.2,8.8,21.2,8.8s15.5-3.1,21.2-8.8s8.8-13.2,8.8-21.2
			s-3.1-15.6-8.8-21.2c-3.3-3.3-7.2-5.7-11.3-7.1v-40.5l132.5,132.6L389.3,296.4L389.3,296.4z"/>
	</g>
</g>
<g>
	<g>
		<path class="st0" d="M184.1,200.2c-3.9-3.9-10.2-3.9-14.1,0L85.1,285c-3.9,3.9-3.9,10.2,0,14.1c2,2,4.5,2.9,7.1,2.9s5.1-1,7.1-2.9
			l84.8-84.8C188,210.4,188,204.1,184.1,200.2z"/>
	</g>
</g>
<g>
	<g>
		<path class="st0" d="M470.5,370.7c-1.8-2.9-5-4.7-8.5-4.7s-6.6,1.8-8.5,4.7c-6.9,11.1-41.5,67.5-41.5,91.3c0,27.6,22.4,50,50,50
			s50-22.4,50-50C512,438.2,477.4,381.7,470.5,370.7z M462,491.9c-16.5,0-30-13.5-30-30c0-11,15.6-41.9,30-66.6
			c14.4,24.8,30,55.6,30,66.6C492,478.5,478.6,491.9,462,491.9z"/>
	</g>
</g>
</svg>
