<?xml version="1.0" encoding="utf-8"?>
<!-- Generator: Adobe Illustrator 25.2.0, SVG Export Plug-In . SVG Version: 6.00 Build 0)  -->
<svg version="1.1" id="Layer_1" xmlns="http://www.w3.org/2000/svg" xmlns:xlink="http://www.w3.org/1999/xlink" x="0px" y="0px"
	 viewBox="0 0 512 512" style="enable-background:new 0 0 512 512;" xml:space="preserve">
<style type="text/css">
	.st0{fill:#F02A8B;stroke:#F02A8B;stroke-width:1.5;stroke-miterlimit:10;}
</style>
<path class="st0" d="M453.4,216l-10.6-5.1c-10.9-5.2-15.5-18.2-10.3-29.1c0.2-0.4,0.4-0.7,0.5-1.1l5.6-10.3
	c11.4-21,3.6-47.2-17.3-58.6c-8.7-4.7-18.8-6.3-28.5-4.5l-11.5,2.2c-11.9,2.2-23.3-5.6-25.5-17.5c-0.1-0.4-0.1-0.8-0.2-1.1
	l-1.5-11.7C351,55.6,329.3,39,305.7,42.1c-9.8,1.3-18.9,5.9-25.7,13.1l-8.1,8.5l0,0c-8.7,8.8-22.8,8.8-31.6,0.1l-0.1-0.1l-8.1-8.5
	c-16.4-17.3-43.7-18-61-1.6c-7.2,6.8-11.8,15.9-13.1,25.7l-1.5,11.6c-0.8,6-4,11.3-8.8,14.8c-4.8,3.6-10.9,5-16.8,3.8l-11.6-2.2
	c-23.5-4.3-46,11.1-50.3,34.6c-1.8,9.7-0.2,19.8,4.5,28.5l5.6,10.3c5.8,10.6,1.9,23.8-8.7,29.6c-0.4,0.2-0.7,0.4-1.1,0.5L58.6,216
	c-21.5,10.3-30.7,36-20.4,57.5c4.3,8.9,11.5,16.2,20.4,20.4l10.6,5.1c10.9,5.2,15.5,18.2,10.3,29.1c-0.2,0.4-0.4,0.7-0.5,1.1
	l-5.6,10.3c-11.4,21-3.6,47.2,17.3,58.6c8.7,4.7,18.8,6.3,28.5,4.5l11.5-2.2c11.9-2.2,23.3,5.6,25.5,17.5c0.1,0.4,0.1,0.8,0.2,1.1
	l1.5,11.7c2.1,16.5,13.6,30.4,29.5,35.4c4.4,1.4,8.9,2.2,13.5,2.2c11.8,0,23.1-4.9,31.2-13.5l8.1-8.5c8.7-8.8,22.8-8.8,31.6-0.1
	l0.1,0.1l8.1,8.5c16.4,17.3,43.7,18,61,1.6c7.2-6.8,11.8-15.9,13.1-25.7l1.5-11.6c1.6-12,12.5-20.4,24.5-18.8
	c0.4,0.1,0.8,0.1,1.2,0.2l11.6,2.2c23.5,4.4,46-11.1,50.3-34.6c1.8-9.7,0.2-19.8-4.5-28.5l-5.6-10.3c-5.8-10.6-1.9-23.8,8.7-29.6
	c0.4-0.2,0.7-0.4,1.1-0.5l10.6-5.1c21.5-10.3,30.7-36,20.4-57.5C469.6,227.5,462.4,220.3,453.4,216L453.4,216z M444.3,274.7
	l-10.6,5.1c-21.5,10.3-30.7,36-20.4,57.6c0.3,0.7,0.7,1.4,1,2l5.6,10.3c5.8,10.6,1.9,23.9-8.7,29.6c-4.4,2.4-9.5,3.2-14.4,2.3
	l-11.6-2.2c-23.4-4.4-46,11.1-50.3,34.6c-0.1,0.8-0.3,1.5-0.4,2.3l-1.5,11.6c-1.6,12-12.5,20.4-24.5,18.8c-5-0.7-9.6-3-13-6.6
	l-8.1-8.5c-17.2-17.3-45.2-17.4-62.5-0.2c-0.1,0.1-0.1,0.1-0.2,0.2l-8.1,8.5c-8.3,8.8-22.1,9.1-30.9,0.8c-3.6-3.4-6-8-6.6-13
	l-1.5-11.7c-2.8-21.4-21.1-37.5-42.7-37.6c-2.7,0-5.4,0.3-8,0.7l-11.5,2.2c-11.9,2.2-23.3-5.6-25.5-17.5c-0.9-4.9-0.1-10,2.3-14.4
	l5.6-10.3c11.4-21,3.6-47.2-17.3-58.6c-0.7-0.4-1.4-0.7-2-1l-10.6-5c-10.9-5.2-15.5-18.2-10.3-29.1c2.2-4.5,5.8-8.2,10.3-10.3
	l10.6-5.1c21.5-10.3,30.7-36,20.4-57.6c-0.3-0.7-0.7-1.4-1-2l-5.6-10.3c-5.8-10.6-1.9-23.9,8.7-29.6c4.4-2.4,9.5-3.2,14.4-2.3
	l11.6,2.2c23.4,4.4,46-11.1,50.3-34.6c0.1-0.8,0.3-1.5,0.4-2.3l1.5-11.6c1.6-12,12.5-20.4,24.5-18.8c5,0.7,9.6,3,13,6.6l8.1,8.5
	c17.2,17.3,45.2,17.4,62.5,0.2c0.1-0.1,0.1-0.1,0.2-0.2l8.1-8.5c8.3-8.8,22.1-9.1,30.9-0.8c3.6,3.4,6,8,6.6,13l1.5,11.7
	c3.1,23.7,24.8,40.3,48.4,37.2c0.8-0.1,1.5-0.2,2.3-0.4l11.5-2.2c11.9-2.2,23.3,5.6,25.5,17.5c0.9,4.9,0.1,10-2.3,14.4l-5.6,10.3
	c-11.4,21-3.6,47.2,17.3,58.6c0.7,0.4,1.4,0.7,2,1l10.6,5c10.9,5.2,15.5,18.2,10.3,29.1C452.4,268.9,448.8,272.6,444.3,274.7
	L444.3,274.7z"/>
<path class="st0" d="M327.5,183.5c-4.2-4.2-10.9-4.2-15.1,0l0,0l-128,128c-4.2,4.1-4.3,10.9-0.2,15.1s10.9,4.3,15.1,0.2
	c0.1-0.1,0.2-0.2,0.2-0.2l128-128C331.7,194.4,331.7,187.6,327.5,183.5L327.5,183.5z"/>
<path class="st0" d="M234.7,201.7c0-17.7-14.3-32-32-32s-32,14.3-32,32s14.3,32,32,32C220.3,233.6,234.6,219.3,234.7,201.7z
	 M192,201.7c0-5.9,4.8-10.7,10.7-10.7s10.7,4.8,10.7,10.7s-4.8,10.7-10.7,10.7C196.8,212.3,192,207.5,192,201.7z"/>
<path class="st0" d="M309.3,276.3c-17.7,0-32,14.3-32,32s14.3,32,32,32s32-14.3,32-32C341.3,290.7,327,276.3,309.3,276.3z
	 M309.3,319c-5.9,0-10.7-4.8-10.7-10.7c0-5.9,4.8-10.7,10.7-10.7s10.7,4.8,10.7,10.7S315.2,319,309.3,319L309.3,319z"/>
</svg>
