<?xml version="1.0" encoding="utf-8"?>
<!-- Generator: Adobe Illustrator 25.2.0, SVG Export Plug-In . SVG Version: 6.00 Build 0)  -->
<svg version="1.1" id="svg8" xmlns:svg="http://www.w3.org/2000/svg"
	 xmlns="http://www.w3.org/2000/svg" xmlns:xlink="http://www.w3.org/1999/xlink" x="0px" y="0px" viewBox="0 0 512 512"
	 style="enable-background:new 0 0 512 512;" xml:space="preserve">
<style type="text/css">
	.st0{fill-rule:evenodd;clip-rule:evenodd;fill:#5F3AFC;stroke:#5F3AFC;stroke-width:2;stroke-miterlimit:10;}
</style>
<g id="layer2">
	<path id="path832" vector-effect="none" class="st0" d="M363.2,32.1c-54.3,0-100.9,37.3-113.9,89c-11.6-2.3-23.5-3.5-35.7-3.5
		c-24.1,0-47.1,4.7-68.1,13.3c-5.5,2.1-8.3,8.2-6.3,13.8c2.1,5.5,8.2,8.3,13.8,6.3c0.2-0.1,0.4-0.1,0.5-0.2
		c18.6-7.5,38.8-11.7,60.1-11.7c88.6,0,160.3,71.6,160.3,160.3s-71.6,160.3-160.3,160.3c-26.3,0-52.1-6.5-75.3-18.9
		c-2.2-1.2-4.9-1.6-7.3-1L56.8,456l16.5-74.3c0.6-2.5,0.2-5.1-1-7.3c-12.4-23.2-18.9-49-18.9-75.2c0-21.3,4.2-41.5,11.7-60.1
		c2.4-5.4-0.1-11.7-5.5-14.1s-11.7,0.1-14.1,5.5c-0.1,0.2-0.1,0.3-0.2,0.5c-8.5,21-13.2,44-13.2,68.1c0,28.3,6.9,56.1,19.6,81.4
		l-19.4,87.2c-1.3,5.8,2.4,11.5,8.1,12.7c1.5,0.3,3.1,0.3,4.6,0l87.2-19.4c25.3,12.7,53.1,19.6,81.5,19.6
		c100.2,0,181.6-81.4,181.6-181.6c0-12.3-1.2-24.4-3.6-36c5.9-1.6,11.7-3.7,17.4-6.1l59.3,9.9c5.8,1,11.3-3,12.3-8.8
		c0.2-1.2,0.2-2.3,0-3.5l-9.8-58.9c6.3-14.6,10-30.2,10-46.1c0-18.1-4.2-35.3-11.5-50.6c-1.7-3.6-5.3-6-9.3-6.2
		c-5.9-0.2-10.9,4.4-11.1,10.3c-0.1,1.8,0.3,3.6,1.1,5.2c6,12.6,9.5,26.5,9.5,41.4c0,14.1-3.2,28-9.2,40.8c-0.9,2-1.2,4.2-0.9,6.3
		l7.8,46.7l-46.7-7.8c-2.1-0.4-4.3-0.1-6.3,0.9c-5.7,2.7-11.7,4.7-17.8,6.2c-18-54.9-61.4-98.3-116.3-116.2
		c10.5-42.6,48.6-73.1,93.2-73.1c14.1,0,27.5,3.1,39.6,8.6c5.4,2.4,11.7,0.1,14.1-5.3s0.1-11.7-5.3-14.1l0,0
		C396.9,35.9,380.5,32,363.2,32.1z M438,62.6c-5.9,0-10.7,4.8-10.7,10.7S432.1,84,438,84s10.7-4.8,10.7-10.7S443.9,62.6,438,62.6z
		 M170.9,288.5c-5.9,0-10.7,4.8-10.7,10.7s4.8,10.7,10.7,10.7s10.7-4.8,10.7-10.7S176.8,288.5,170.9,288.5z M213.7,288.5
		c-5.9,0-10.7,4.8-10.7,10.7s4.8,10.7,10.7,10.7s10.7-4.8,10.7-10.7S219.6,288.5,213.7,288.5z M256.4,288.5
		c-5.9,0-10.7,4.8-10.7,10.7s4.8,10.7,10.7,10.7s10.7-4.8,10.7-10.7S262.3,288.5,256.4,288.5z"/>
</g>
</svg>
