<?xml version="1.0" encoding="utf-8"?>
<!-- Generator: Adobe Illustrator 25.2.0, SVG Export Plug-In . SVG Version: 6.00 Build 0)  -->
<svg version="1.1" id="Layer_1" xmlns="http://www.w3.org/2000/svg" xmlns:xlink="http://www.w3.org/1999/xlink" x="0px" y="0px"
	 viewBox="0 0 426 426" style="enable-background:new 0 0 426 426;" xml:space="preserve">
<style type="text/css">
	.st0{fill:#433CFE;}
</style>
<path class="st0" d="M389.7,1.6c-3.1-1.9-7.1-2.1-10.4-0.5l-38,19L300.7,1c-3-1.4-6.6-1.3-9.5,0.2L256.1,20L218.4,1.1
	c-3-1.5-6.5-1.5-9.5,0L171.1,20L133.2,1.1c-3-1.5-6.5-1.5-9.5,0L85.9,20L48,1.1c-3.3-1.6-7.2-1.5-10.4,0.5c-3.1,1.9-5.1,5.4-5.1,9.1
	v404.7c0,3.7,1.9,7.1,5.1,9.1c3.1,1.9,7.1,2.1,10.4,0.5l37.9-19l37.8,18.9c3,1.5,6.5,1.5,9.5,0L171,406l37.8,18.9
	c3,1.5,6.5,1.5,9.5,0l37.7-18.8l35.1,18.7c3,1.6,6.5,1.7,9.5,0.2l40.6-19.1l38,19c3.3,1.6,7.2,1.5,10.4-0.5c3.1-1.9,5.1-5.4,5.1-9.1
	V10.7C394.7,7,392.8,3.5,389.7,1.6z M373.4,398.1l-27.2-13.6c-2.9-1.5-6.3-1.5-9.3-0.1l-40.4,19l-35.2-18.8c-3-1.6-6.7-1.7-9.8-0.1
	l-37.8,18.9l-37.8-18.9c-3-1.5-6.5-1.5-9.5,0l-37.8,18.9l-37.8-18.9c-3-1.5-6.5-1.5-9.5,0l-27.2,13.6V27.9l27.2,13.6
	c3,1.5,6.5,1.5,9.5,0l37.8-18.9l37.8,18.9c3,1.5,6.5,1.5,9.5,0l37.8-18.9l37.8,18.9c3.1,1.5,6.7,1.5,9.8-0.1l35.2-18.8l40.4,19
	c3,1.4,6.4,1.3,9.3-0.1l27.2-13.6V398.1z"/>
<path class="st0" d="M317.5,242.2c6.8,0,12.3-5.5,12.3-12.3s-5.5-12.3-12.3-12.3h-24.7v-12.3c0-6.8-5.5-12.3-12.3-12.3
	s-12.3,5.5-12.3,12.3v12.3h-24.7c-6.8,0-12.3,5.5-12.3,12.3v37c0,6.8,5.5,12.3,12.3,12.3h61.6v12.3h-61.6c-6.8,0-12.3,5.5-12.3,12.3
	s5.5,12.3,12.3,12.3h24.7v12.3c0,6.8,5.5,12.3,12.3,12.3s12.3-5.5,12.3-12.3v-12.3h24.7c6.8,0,12.3-5.5,12.3-12.3v-37
	c0-6.8-5.5-12.3-12.3-12.3h-61.6v-12.3L317.5,242.2L317.5,242.2z"/>
<path class="st0" d="M320.2,85.2h-213c-5.9,0-10.6,4.8-10.6,10.6s4.8,10.7,10.6,10.7h213c5.9,0,10.6-4.8,10.6-10.7
	S326,85.2,320.2,85.2z"/>
<path class="st0" d="M320.2,127.8h-213c-5.9,0-10.6,4.8-10.6,10.7s4.8,10.7,10.6,10.7h213c5.9,0,10.6-4.8,10.6-10.7
	S326,127.8,320.2,127.8z"/>
<path class="st0" d="M158,291.9h-49.2c-6.8,0-12.3,5.5-12.3,12.3s5.5,12.3,12.3,12.3H158c6.8,0,12.3-5.5,12.3-12.3
	S164.8,291.9,158,291.9z"/>
</svg>
